<?xml version="1.0" encoding="utf-8"?>
<!-- Generator: Adobe Illustrator 19.2.1, SVG Export Plug-In . SVG Version: 6.00 Build 0)  -->
<svg version="1.1" id="Layer_1" xmlns="http://www.w3.org/2000/svg" xmlns:xlink="http://www.w3.org/1999/xlink" x="0px" y="0px"
	 viewBox="0 0 1024 1024" enable-background="new 0 0 1024 1024" xml:space="preserve">
<g>
	<path fill="#65B6F0" d="M512,972c-62.1084,0-122.3481-12.1592-179.0469-36.1406c-54.7739-23.168-103.9702-56.3379-146.2222-98.5898
		c-42.252-42.2529-75.4229-91.4492-98.5903-146.2227C64.1597,634.3486,52,574.1084,52,512s12.1597-122.3481,36.1406-179.0469
		c23.1675-54.7739,56.3384-103.9702,98.5903-146.2222s91.4482-75.4229,146.2222-98.5903C389.6519,64.1597,449.8916,52,512,52
		s122.3486,12.1597,179.0469,36.1406c54.7734,23.1675,103.9697,56.3384,146.2227,98.5903
		c42.252,42.252,75.4219,91.4482,98.5898,146.2222C959.8408,389.6519,972,449.8916,972,512s-12.1592,122.3486-36.1406,179.0469
		c-23.168,54.7734-56.3379,103.9697-98.5898,146.2227c-42.2529,42.252-91.4492,75.4219-146.2227,98.5898
		C634.3486,959.8408,574.1084,972,512,972z"/>
	<path fill="#29343D" d="M512,72c59.4172,0,117.0359,11.628,171.2557,34.5609c52.39,22.1591,99.4495,53.8904,139.8713,94.3122
		s72.1531,87.4813,94.3122,139.8713C940.3719,394.9641,952,452.5828,952,512s-11.6281,117.0359-34.5609,171.2557
		c-22.1591,52.39-53.8904,99.4495-94.3122,139.8713s-87.4813,72.1531-139.8713,94.3122C629.0359,940.3719,571.4172,952,512,952
		s-117.0359-11.6281-171.2556-34.5609c-52.39-22.1591-99.4496-53.8904-139.8713-94.3122s-72.153-87.4813-94.3122-139.8713
		C83.628,629.0359,72,571.4172,72,512s11.628-117.0359,34.5609-171.2556c22.1591-52.39,53.8904-99.4496,94.3122-139.8713
		s87.4813-72.153,139.8713-94.3122C394.9641,83.628,452.5828,72,512,72 M512,32C246.9033,32,32,246.9033,32,512
		s214.9033,480,480,480s480-214.9033,480-480S777.0967,32,512,32L512,32z"/>
</g>
<g>
	<path fill="#29343D" d="M708,659V395c0-28.1299-13.0732-57.3369-35.8682-80.1318C649.3369,292.0737,620.1299,279,592,279h-12
		v-92.2842L474.5591,292.1567c-3.9375-7.5674-9.0332-14.5405-15.1045-20.6118C443.626,255.7168,422.5112,247,400,247
		s-43.626,8.7168-59.4551,24.5454C324.7168,287.374,316,308.4888,316,331c0,25.5557,11.8682,49.6758,32,65.5371v188.4268
		c-20.1318,15.8613-32,39.9805-32,65.5361c0,22.5117,8.7168,43.627,24.5454,59.4551S377.4888,734.5,400,734.5
		s43.626-8.7168,59.4551-24.5449c3.2515-3.252,6.2036-6.7275,8.8413-10.3916c0.082,0.3457,0.1689,0.6895,0.2612,1.0352
		c1.5171,5.6641,4.3101,10.7686,8.1016,14.9912c-7.9692,8.9893-11.3564,21.6826-8.105,33.8252
		c4.2788,15.9785,18.8042,27.1377,35.3232,27.1377c3.2124,0,6.4209-0.4258,9.5474-1.2686l0.334-0.0908l9.8545-3.0322
		c0.0205,3.6094,0.5811,7.2334,1.6914,10.7725c4.8086,15.3564,18.8438,25.6738,34.9258,25.6738
		c3.7021,0,7.3809-0.5635,10.9385-1.6758l110.874-34.7402c19.2559-6.0293,30.0137-26.6123,23.9785-45.8867
		c-1.5674-4.9951-4.1572-9.5293-7.541-13.3496c8.082-8.9844,11.5381-21.7529,8.2725-34.0332
		c-1.5137-5.6406-4.292-10.7217-8.0625-14.9287c1.3906-1.5459,2.6455-3.2148,3.7529-4.9932L708,659L708,659z M400,343
		c-6.3926,0-12-5.6074-12-12s5.6074-12,12-12s12,5.6074,12,12S406.3926,343,400,343z M400,639c6.3926,0,12,5.6074,12,12
		s-5.6074,12-12,12s-12-5.6074-12-12S393.6074,639,400,639z M452,584.9639V396.5327c9.2578-7.312,16.8862-16.5107,22.3647-26.8838
		L580,475.2842V383h12c4.9346,0,12,7.0654,12,12v227.0469l-110.0034,33.8477c-3.8818,1.0957-7.4458,2.7891-10.6182,4.9521
		C483.791,657.4414,484,653.9873,484,650.5C484,624.9443,472.1318,600.8252,452,584.9639z"/>
	<path fill="#FFFFFF" d="M666.1403,721.4188L666.1403,721.4188L555.263,756.1592c-8.7474,2.7388-13.6107,12.0671-10.8719,20.7978
		c2.7388,8.7474,12.0504,13.6273,20.7978,10.8885l110.8774-34.7404c8.7473-2.7388,13.6107-12.0671,10.8719-20.8144
		C684.1994,723.56,674.8877,718.6801,666.1403,721.4188z"/>
	<path fill="#FFFFFF" d="M667.103,672.3705L667.103,672.3705l-167.4944,51.5381c-8.847,2.3901-14.1087,11.4695-11.7351,20.333
		c2.3735,8.8636,11.4695,14.1252,20.3331,11.7351l167.4779-51.5381c8.8635-2.3735,14.1086-11.4695,11.7516-20.333
		C685.0626,675.2586,675.95,669.9969,667.103,672.3705z"/>
	<path fill="#FFFFFF" d="M688,395c0-48-48-96-96-96c-32,0-32,0-32,0v-64l-96,96l96,96v-64c0,0,16,0,32,0s32,16,32,32
		c0,9.0791,0,135.2687,0,241.818l-124.3877,38.274c-8.847,2.3902-14.1086,11.4695-11.7351,20.3331
		c2.3736,8.8635,11.4695,14.1252,20.3165,11.735l167.4945-51.6522C683.2354,653.4869,688.1398,647,687.9808,639H688
		C688,540,688,421.5225,688,395z"/>
	<path fill="#FFFFFF" d="M400,267c-35.5,0-64,28.5-64,64c0,23.5,13,44,32,55v209.5c-19,11-32,31.5-32,55c0,35.5,28.5,64,64,64
		s64-28.5,64-64c0-23.5-13-44-32-55V386c19-11,32-31.5,32-55C464,295.5,435.5,267,400,267z M400,683c-17.5,0-32-14.5-32-32
		s14.5-32,32-32s32,14.5,32,32S417.5,683,400,683z M400,363c-17.5,0-32-14.5-32-32s14.5-32,32-32s32,14.5,32,32S417.5,363,400,363z"
		/>
	<circle fill="#FFFFFF" cx="400" cy="331" r="16"/>
	<circle fill="#FFFFFF" cx="400" cy="651" r="16"/>
</g>
</svg>
